<svg width="16" height="17" viewBox="0 0 16 17" fill="none" xmlns="http://www.w3.org/2000/svg">
<g id="bxs:sort-alt">
<path id="Vector" d="M4.15132 7.83334H11.8493C12.424 7.83334 12.7293 7.15335 12.3473 6.72335L8.49865 2.39335C8.43622 2.32288 8.35955 2.26647 8.2737 2.22783C8.18786 2.1892 8.09479 2.16922 8.00065 2.16922C7.90651 2.16922 7.81344 2.1892 7.72759 2.22783C7.64175 2.26647 7.56508 2.32288 7.50265 2.39335L3.65265 6.72335C3.27065 7.15335 3.57598 7.83334 4.15132 7.83334ZM7.50198 14.606C7.56441 14.6765 7.64108 14.7329 7.72693 14.7715C7.81277 14.8102 7.90584 14.8301 7.99998 14.8301C8.09412 14.8301 8.18719 14.8102 8.27304 14.7715C8.35888 14.7329 8.43555 14.6765 8.49798 14.606L12.3466 10.276C12.7293 9.84668 12.424 9.16668 11.8486 9.16668H4.15132C3.57665 9.16668 3.27132 9.84668 3.65332 10.2767L7.50198 14.606Z" fill="#9E9E9E"/>
</g>
</svg>
